<svg xmlns="http://www.w3.org/2000/svg" viewBox="0.0 0.0 100.0 100.0" x="0px" y="0px"><path fill-rule="evenodd" clip-rule="evenodd" d="M57 9.5C57 11.3818 55.3316 12.9938 52.963 13.6657L52.5 22L52.0732 22.0427C54.4107 22.1699 56.6732 22.5787 58.8275 23.2359L59.7975 20.9725C59.0328 20.1413 58.6189 19.1372 59 18.4771C59.5523 17.5205 61.5651 17.6487 63 18.4771C64.4349 19.3055 65.5523 20.9846 65 21.9412C64.3611 23.0478 63.5324 23.1031 62.6539 22.7884L61.138 24.0517C63.793 25.1206 66.25 26.5777 68.4387 28.3527L75.1744 20.1201C73.9268 17.6531 73.954 15.1237 75.4342 13.8816C77.3308 12.2901 80.8949 13.4151 83.3946 16.3942C85.8944 19.3733 86.3834 23.0785 84.4867 24.67C83.3268 25.6433 81.5432 25.6006 79.7608 24.7392L72.3269 32.1731C74.0013 34.1653 75.4081 36.3899 76.4917 38.7917L78.3575 37.4589C77.9663 35.351 78.5257 33.4968 79.8191 33.0261C81.376 32.4594 83.4069 34.1121 84.3552 36.7175C85.3035 39.3229 84.8101 41.8944 83.2532 42.4611C82.1501 42.8626 80.8091 42.15 79.7838 40.7739L77.735 42.0777C78.3096 43.9376 78.6988 45.8789 78.8812 47.8799L87.4363 47.136C88.2181 44.6979 89.9674 43 92 43C94.7614 43 97 46.134 97 50C97 53.866 94.7614 57 92 57C90.132 57 88.5032 55.5658 87.6448 53.4411L78.8866 53.0603C78.7189 54.9431 78.3682 56.7732 77.8523 58.5327L80.3619 60.1012C81.5393 58.9798 82.9497 58.5445 83.9582 59.1268C85.3422 59.9258 85.4452 62.3383 84.1883 64.5153C82.9315 66.6922 80.7907 67.8092 79.4067 67.0102C78.3574 66.4044 78.0445 64.8708 78.5025 63.2157L76.5422 62.0956C75.4665 64.5078 74.0655 66.7431 72.3949 68.7457L79.0136 74.2614C81.533 72.917 84.2077 72.9531 85.534 74.5337C87.1716 76.4853 86.1332 80.0526 83.2147 82.5015C80.2962 84.9505 76.6027 85.3536 74.9651 83.402C73.9139 82.1493 73.9654 80.2307 74.909 78.3696L69.059 72.1296C67.1627 73.7583 65.0498 75.1418 62.7694 76.2311L63.6097 78.1219C64.7184 77.8743 65.684 78.077 66.0622 78.732C66.6145 79.6886 65.7051 81.2476 64.0311 82.2141C62.3571 83.1806 60.5523 83.1886 60 82.232C59.5755 81.4967 60.0146 80.4054 61.0009 79.5009L59.1604 77.6604C57.1912 78.2877 55.1291 78.7068 53 78.8919V87.7074C54.8042 88.5071 56 89.9068 56 91.5C56 93.9853 53.0899 96 49.5 96C45.9101 96 43 93.9853 43 91.5C43 89.8571 44.2717 88.4199 46.1707 87.6343L47.2726 78.8193C45.3314 78.6005 43.4492 78.1867 41.6461 77.5979L39.7751 80.0034C40.6673 80.7689 41.3277 81.6239 40.99 82.2087C39.9561 83.9995 37.4248 83.0372 35.99 82.2087C34.5551 81.3803 33.4377 79.7012 33.99 78.7446C34.4819 77.8926 36.1325 77.9012 37.5014 78.4986L39.2895 76.7105C36.5866 75.553 34.0989 73.9896 31.903 72.097L25.6821 78.3179C26.9148 80.7651 26.8701 83.2889 25.3805 84.5388C23.4766 86.1363 19.9335 85.0481 17.4666 82.1082C14.9998 79.1683 14.5434 75.49 16.4472 73.8925C17.6527 72.881 19.5154 72.9463 21.3461 73.8766L28.493 68.6104C26.8649 66.6343 25.4978 64.4352 24.4445 62.0657L21.7199 63.0564C22.101 65.1526 21.5408 66.9925 20.2532 67.4611C18.6962 68.0278 16.6653 66.3751 15.717 63.7696C14.7687 61.1642 15.2621 58.5927 16.8191 58.026C17.9794 57.6037 19.4029 58.4141 20.4454 59.9327L23.0931 58.3441C22.6016 56.6237 22.2678 54.8368 22.1081 53H12.1354C11.158 54.8041 9.44717 56 7.5 56C4.46243 56 2 53.0898 2 49.5C2 45.9101 4.46243 43 7.5 43C9.81789 43 11.8009 44.6945 12.6104 47.0925L22.1184 47.8849C22.3093 45.7857 22.7279 43.7523 23.3493 41.8096L20.5774 40.1465C19.5141 41.2454 18.1775 41.6892 17.2288 41.1414C15.9979 40.4307 15.8859 38.3202 16.9788 36.4273C18.0716 34.5345 19.9554 33.5761 21.1863 34.2868C22.0999 34.8142 22.3971 36.1129 22.0427 37.5214L24.5222 38.7611C25.5542 36.4809 26.8776 34.3607 28.4449 32.4481L20.3283 24.809C17.9714 25.917 15.6807 25.9107 14.5781 24.5967C13.0743 22.8045 14.35 19.2582 17.4276 16.6758C20.5052 14.0934 24.2191 13.4529 25.723 15.2451C26.8294 16.5637 26.4312 18.8318 24.9178 20.9669L31.9683 28.8469C33.8648 27.2223 35.9772 25.8425 38.2565 24.7565L36.5918 23.0918C35.399 23.4126 34.3368 23.2267 33.9356 22.5318C33.3834 21.5753 34.2927 20.0163 35.9667 19.0498C37.6408 18.0833 39.4455 18.0753 39.9978 19.0318C40.3797 19.6933 40.0627 20.6428 39.2773 21.4853L40.5842 23.7723C42.775 22.9593 45.0929 22.4078 47.5 22.156V13.4931C45.4201 12.7426 44 11.2361 44 9.5C44 7.01472 46.9101 5 50.5 5C54.0899 5 57 7.01472 57 9.5ZM46 33C46 35.2091 44.433 37 42.5 37C40.567 37 39 35.2091 39 33C39 30.7909 40.567 29 42.5 29C44.433 29 46 30.7909 46 33ZM39 43C39 44.1046 38.1046 45 37 45C35.8954 45 35 44.1046 35 43C35 41.8954 35.8954 41 37 41C38.1046 41 39 41.8954 39 43ZM30 56C31.6569 56 33 54.433 33 52.5C33 50.567 31.6569 49 30 49C28.3431 49 27 50.567 27 52.5C27 54.433 28.3431 56 30 56ZM62 43.5C62 47.0899 59.0899 50 55.5 50C51.9101 50 49 47.0899 49 43.5C49 39.9101 51.9101 37 55.5 37C59.0899 37 62 39.9101 62 43.5ZM42.5 63C44.9853 63 47 60.7614 47 58C47 55.2386 44.9853 53 42.5 53C40.0147 53 38 55.2386 38 58C38 60.7614 40.0147 63 42.5 63ZM64 61C64 62.6569 63.1046 64 62 64C60.8954 64 60 62.6569 60 61C60 59.3431 60.8954 58 62 58C63.1046 58 64 59.3431 64 61ZM72.5 57C74.433 57 76 55.433 76 53.5C76 51.567 74.433 50 72.5 50C70.567 50 69 51.567 69 53.5C69 55.433 70.567 57 72.5 57ZM58 67C58 68.6569 56.433 70 54.5 70C52.567 70 51 68.6569 51 67C51 65.3431 52.567 64 54.5 64C56.433 64 58 65.3431 58 67ZM45.5 73C46.3284 73 47 72.3284 47 71.5C47 70.6716 46.3284 70 45.5 70C44.6716 70 44 70.6716 44 71.5C44 72.3284 44.6716 73 45.5 73Z"/></svg>