<svg xmlns="http://www.w3.org/2000/svg" viewBox="0 0 1280 1280"><g transform="translate(0,1280) scale(0.1,-0.1)"><path d="M4605 10825 c-143 -18 -191 -29 -187 -40 2 -6 144 -75 315 -156 540 -251 950 -469 1187 -628 122 -82 325 -239 400 -309 64 -59 78 -78 93 -126 33 -104 47 -201 54 -361 9 -258 -22 -547 -103 -955 -100 -503 -217 -909 -349 -1207 -64 -147 -69 -154 -162 -253 -265 -280 -745 -628 -1198 -866 -66 -35 -128 -69 -138 -76 -15 -12 -5 -27 118 -163 74 -82 135 -155 135 -162 0 -6 -7 -43 -15 -81 -64 -308 -115 -783 -136 -1278 -13 -311 -6 -1044 15 -1611 13 -349 16 -375 35 -407 44 -71 176 -129 369 -163 139 -24 523 -24 685 0 127 19 278 59 315 83 82 54 147 403 317 1699 87 665 103 775 150 1010 18 94 44 230 56 303 19 109 25 131 38 128 9 -3 84 -17 166 -31 83 -14 173 -30 201 -36 l50 -10 -38 -216 c-22 -123 -35 -220 -30 -225 20 -20 275 -122 386 -154 340 -98 680 -113 1242 -54 104 11 235 24 290 30 98 10 243 49 340 90 l46 20 -33 43 c-18 23 -125 134 -239 247 -215 214 -251 262 -296 386 -29 79 -54 216 -54 295 0 49 3 59 18 59 9 0 105 -12 213 -26 l196 -27 6 -67 c11 -126 64 -205 227 -338 220 -181 289 -251 341 -354 10 -20 62 -238 114 -483 l96 -447 -7 -166 c-16 -423 67 -1493 122 -1553 48 -53 179 -104 350 -135 142 -26 562 -27 719 -1 217 37 374 83 523 154 l94 44 -6 57 c-3 31 -10 206 -16 387 -24 756 -37 1055 -60 1285 -8 85 -7 104 15 190 112 446 206 1107 249 1760 l12 185 42 -82 c90 -176 144 -345 237 -743 32 -135 61 -249 65 -254 5 -5 34 13 65 40 l57 49 -6 510 c-11 861 -33 1529 -71 2165 -24 399 -32 480 -55 555 -68 217 -235 452 -470 661 -793 702 -2195 1176 -3845 1299 -222 17 -921 39 -935 30 -6 -3 -115 33 -242 81 -578 216 -1014 337 -1403 389 -168 23 -530 28 -670 10z"/><path d="M3135 10614 c-225 -15 -486 -56 -774 -123 -276 -64 -236 -41 -344 -204 -386 -580 -752 -1512 -1016 -2588 -133 -541 -152 -670 -149 -991 l3 -247 167 117 c385 270 631 476 1228 1032 281 261 486 447 630 571 204 176 380 217 558 132 86 -42 226 -187 273 -283 126 -257 140 -530 43 -821 -30 -91 -100 -231 -156 -311 l-40 -57 182 -358 c100 -197 184 -360 186 -362 5 -6 235 65 336 105 143 55 419 194 558 281 310 194 563 414 744 646 61 79 73 101 113 220 223 662 367 1412 350 1822 -10 242 -27 276 -205 426 -219 184 -509 351 -882 509 -328 139 -1231 456 -1335 470 -82 10 -384 19 -470 14z m-1053 -1949 c58 -7 126 -19 150 -25 24 -6 60 -16 81 -21 l37 -10 -97 -78 c-54 -42 -153 -128 -219 -189 l-122 -111 -69 48 c-119 84 -174 167 -188 284 l-7 57 38 16 c50 21 164 42 234 43 30 0 103 -6 162 -14z"/><path d="M3089 7784 c-79 -69 -268 -242 -419 -383 -525 -490 -662 -613 -920 -822 -382 -310 -835 -611 -1179 -783 -40 -21 -71 -40 -68 -43 9 -8 276 54 477 112 673 193 1383 535 1855 893 55 42 161 137 236 212 143 142 227 256 277 372 25 59 27 72 26 203 0 124 -3 149 -28 222 -28 86 -66 143 -95 143 -9 0 -82 -57 -162 -126z"/><path d="M1765 5673 c-226 -93 -539 -199 -785 -267 l-125 -34 3 -103 c6 -226 60 -604 117 -824 141 -545 402 -913 780 -1102 329 -165 783 -171 1245 -17 474 157 855 456 1021 799 62 127 79 196 79 311 0 188 -62 369 -192 563 -159 235 -433 421 -620 421 -182 0 -395 -180 -415 -350 -9 -80 24 -137 175 -293 130 -135 172 -197 172 -253 0 -90 -136 -241 -282 -312 -174 -85 -373 -112 -528 -73 -108 27 -176 68 -259 157 -201 215 -302 590 -320 1186 l-6 216 -60 -25z"/><path d="M6836 4348 c-10 -54 -286 -2299 -286 -2321 0 -19 5 -20 128 -14 133 7 290 38 395 77 140 53 241 155 239 243 0 39 -212 1941 -215 1943 -1 0 -51 22 -112 48 -151 65 -143 64 -149 24z"/><path d="M9285 4254 c-172 -48 -669 -144 -748 -144 -18 0 -38 -4 -45 -9 -24 -15 -171 -607 -226 -906 -53 -293 -83 -560 -93 -813 -6 -162 -6 -162 18 -189 47 -51 199 -104 389 -135 100 -16 414 -16 515 1 112 18 237 56 328 98 l77 36 0 146 c0 361 -53 1187 -111 1728 -25 226 -17 212 -104 187z"/></g></svg> 