<svg xmlns:dc="http://purl.org/dc/elements/1.1/" xmlns:cc="http://creativecommons.org/ns#" xmlns:rdf="http://www.w3.org/1999/02/22-rdf-syntax-ns#" xmlns:svg="http://www.w3.org/2000/svg" xmlns="http://www.w3.org/2000/svg" xmlns:sodipodi="http://sodipodi.sourceforge.net/DTD/sodipodi-0.dtd" xmlns:inkscape="http://www.inkscape.org/namespaces/inkscape" viewBox="0 0 99.999997 99.99999625" version="1.1" x="0px" y="0px"><title>Overlap</title><g><path style="opacity:1;fill:#000000;fill-opacity:1;fill-rule:evenodd;stroke:none;stroke-width:3;stroke-linecap:square;stroke-linejoin:round;stroke-miterlimit:4;stroke-dasharray:none;stroke-opacity:1" d="M 31.666033,79.883854 C 21.494952,78.630067 12.87372,72.682547 8.2992872,63.763862 5.2837758,57.884575 4.280394,51.406812 5.3812469,44.925193 6.4255999,38.776235 9.4229179,33.034954 13.86043,28.683549 c 2.657876,-2.6063 4.631021,-4.025145 7.765256,-5.583821 6.54531,-3.255027 13.784449,-4.003091 20.98521,-2.168529 2.014112,0.513142 3.448457,1.050823 5.622374,2.107611 l 1.782139,0.866337 1.490452,-0.751256 c 8.575385,-4.322394 18.850365,-4.253163 27.367813,0.184399 2.804176,1.460965 4.947933,3.046703 7.322432,5.4164 2.600892,2.595632 4.177574,4.795171 5.782917,8.067415 1.348075,2.747844 2.179086,5.327571 2.691985,8.356795 0.317203,1.873427 0.434105,5.793999 0.232119,7.784639 -0.968882,9.548667 -6.299185,17.934659 -14.526408,22.853927 -3.210028,1.919358 -6.575269,3.151493 -10.491502,3.841314 -1.846333,0.325221 -5.84271,0.446915 -7.902903,0.240653 -3.623527,-0.362779 -7.386328,-1.472506 -10.667357,-3.146022 l -1.330719,-0.678744 -1.299041,0.673952 c -2.566544,1.331545 -5.581414,2.338163 -8.603931,2.872721 -1.458066,0.257871 -2.102783,0.304675 -4.61669,0.335149 -1.607076,0.01948 -3.31642,-0.0132 -3.798543,-0.07264 z m 7.071133,-3.341904 c 2.39348,-0.339682 5.104763,-1.13014 7.383971,-2.152752 0.652958,-0.292962 0.753161,-0.374448 0.613632,-0.499011 -0.09172,-0.08188 -0.61382,-0.521644 -1.160226,-0.977253 C 38.627867,67.120592 34.6158,58.034377 34.979898,48.919003 35.293641,41.064246 38.426785,33.980882 44.00121,28.52375 c 0.722311,-0.707113 1.658053,-1.548636 2.079423,-1.870051 0.421371,-0.321416 0.769154,-0.618845 0.772851,-0.660955 0.01272,-0.144916 -2.858937,-1.288522 -4.225651,-1.682819 -3.011457,-0.868804 -5.407608,-1.170189 -8.504173,-1.069644 -5.690775,0.184779 -10.74281,1.982463 -15.404201,5.481335 -1.301178,0.976674 -3.644575,3.258469 -4.629298,4.507608 -4.6702951,5.924352 -6.6533894,13.184819 -5.6216684,20.581946 1.2836307,9.203243 7.6436744,17.392928 16.2577174,20.934695 4.482539,1.843049 9.315017,2.462532 14.010956,1.796085 z m 28.109217,0.191156 C 73.246915,76.249456 78.919776,73.734045 83.514956,69.342071 91.970989,61.259978 94.201703,48.71424 89.049835,38.213417 84.948498,29.853846 76.905209,24.277189 67.556436,23.311392 c -1.643189,-0.169754 -4.973041,-0.0763 -6.656975,0.186836 -1.390035,0.217209 -3.460663,0.735614 -4.709496,1.179076 -1.156434,0.410652 -3.019189,1.224451 -3.014722,1.31707 0.002,0.04121 0.228131,0.243923 0.50254,0.450466 1.994012,1.500853 4.616865,4.340248 6.244903,6.76048 4.882127,7.25774 6.361491,16.291382 4.054818,24.760488 -1.57054,5.766345 -5.12701,11.309115 -9.659551,15.054439 -0.62728,0.518335 -1.115445,0.982985 -1.084809,1.032556 0.09094,0.147135 2.47747,1.113347 3.731524,1.510742 2.360315,0.747958 4.920256,1.168455 7.719468,1.268006 0.321415,0.01143 1.294426,-0.03287 2.162247,-0.09844 z M 51.089517,71.415941 c 1.040105,-0.780611 2.841208,-2.377995 3.107717,-2.75621 0.134329,-0.190631 0.09976,-0.224856 -0.350634,-0.347184 -0.274809,-0.07464 -2.801352,-0.752529 -5.614539,-1.506424 -4.960452,-1.329334 -5.109001,-1.361567 -4.920037,-1.067588 0.627766,0.976634 2.4821,3.03512 3.723497,4.133431 1.020441,0.902823 2.826867,2.305807 2.968864,2.305807 0.03853,0 0.526836,-0.342825 1.085132,-0.761832 z m 6.960452,-7.763206 c 0.402498,-0.676627 0.731142,-1.283739 0.730321,-1.349141 -0.0017,-0.132803 -19.496596,-5.379528 -19.600882,-5.275241 -0.08482,0.08482 0.945358,3.06638 1.353984,3.918723 l 0.311061,0.648836 7.887542,2.114479 7.887542,2.114479 0.349308,-0.470953 c 0.19212,-0.259025 0.678626,-1.024556 1.081124,-1.701182 z m 2.429581,-5.295814 c 0.368001,-1.161912 0.873195,-3.209711 0.873405,-3.540345 1.17e-4,-0.196104 -0.14018,-0.27545 -0.788777,-0.446078 C 60.130267,54.256347 54.97891,52.877873 49.116719,51.307221 43.254527,49.736569 38.395011,48.45149 38.317796,48.45149 c -0.178178,0 -0.08251,4.528869 0.102737,4.863373 0.09711,0.17535 2.332781,0.815143 10.855383,3.106531 5.9032,1.587137 10.770248,2.888868 10.815663,2.892737 0.04542,0.0039 0.220003,-0.426875 0.387971,-0.95721 z m 1.300083,-8.999624 c -0.101492,-2.81308 -0.08057,-2.737896 -0.820147,-2.94662 -1.39371,-0.393331 -20.722765,-5.544909 -20.929818,-5.578213 -0.193161,-0.03107 -0.28361,0.142286 -0.608046,1.165387 -0.209623,0.661038 -0.481712,1.665885 -0.604643,2.232994 l -0.223511,1.031108 11.525917,3.100671 c 6.339254,1.70537 11.573457,3.106754 11.63156,3.114186 0.06202,0.0079 0.07387,-0.867248 0.02869,-2.119513 z M 60.48111,41.715541 C 59.900088,39.936254 59.202187,38.369313 58.941376,38.2585 58.351652,38.007944 43.416711,34.089088 43.36047,34.170148 c -0.982483,1.416047 -2.303445,3.620072 -2.211518,3.689917 0.147073,0.111745 19.684815,5.272442 19.712571,5.206875 0.0189,-0.04465 -0.152283,-0.652782 -0.380413,-1.351399 z M 56.495995,33.987808 C 55.09622,32.109352 53.052036,30.058658 51.15434,28.629144 l -1.148419,-0.865092 -0.667052,0.487541 c -1.008722,0.737264 -2.347599,1.873456 -3.033838,2.574561 l -0.613612,0.626906 5.464059,1.475879 c 3.005232,0.811735 5.509748,1.480669 5.56559,1.486521 0.05584,0.0059 -0.04544,-0.186591 -0.225073,-0.427652 z"/></g></svg>