<svg xmlns="http://www.w3.org/2000/svg" viewBox="0 0 512 512"><g class="" transform="translate(0,-30)" style=""><g transform="translate(512, 0) scale(-1, 1) rotate(0, 256, 256) skewX(0) skewY(0)"><path d="M165.9 103C160.9 103 155.7 105.3 150.6 110C144.4 115.8 139.1 125.1 136.8 136.3C134.5 147.6 135.8 158.3 139.3 166C142.8 173.8 147.9 178.3 153.9 179.5C159.9 180.8 166.3 178.6 172.6 172.9C178.7 167.1 184.1 157.8 186.4 146.5C188.6 135.2 187.3 124.5 183.9 116.8C180.4 109 175.3 104.6 169.3 103.3C168.2 103.1 167 103 165.9 103Z" class="" fill-opacity="1"></path><path d="M127.5 181.5C124.1 182.7 120.6 184 116.8 185.6C91.95 201.3 74.6 216.8 56.96 241.3C45.77 256.8 45.22 283.3 44.38 302.8L65.18 312C66.05 284.2 65.54 272.7 78.45 256.7C88.28 244.5 97.78 231.7 116 227.8C117.6 256.7 113.4 301.5 102 347.4C122.5 350.2 139.6 346.7 159 341.1C209.7 315.8 233.1 337.3 268.3 386.8L288.8 354.7C264.2 325.8 240.3 279.6 171.6 297.4C176.6 270.1 177.2 252 180.2 224.8C180.8 212.8 181 200.9 181.3 189.1C172.4 195.9 161.4 199.5 150.3 197.2C140.8 195.2 133 189.3 127.5 181.5Z" class="" fill-opacity="1"></path><path d="M271.7 188.8C253.5 206.6 249.5 219.8 221.5 227.2L199 203.2C198.6 216 198.2 229.1 197.1 242.4C206.6 251.1 216.3 258.1 219.8 257C251.1 247.6 260.1 236.7 281.2 215.1L271.7 188.8Z" class="" fill-opacity="1"></path><path d="M409 215L409 311L313 311L313 407L217 407L217 485.1C319.3 485.3 384.8 486.2 487 486.9L487 215L409 215Z" class="" fill-opacity="1"></path><path d="M140.7 363.9C127.1 366.4 112.9 367.2 97.26 364.8C86.37 402.3 70.5 439.1 48.75 467.3L87.38 482.6C114.4 444.7 124.2 412 140.7 363.9Z" class="" fill-opacity="1"></path></g></g></svg>